<?xml version="1.0" encoding="UTF-8"?>
<svg fill="none" version="1.1" viewBox="0 0 800 800" xmlns="http://www.w3.org/2000/svg">
<g transform="translate(-165.46 -112.45)">
<path d="m330.11 836.37c-45.393-32.98-83.347-75.133-111.4-123.72l130.03-75.072c17.534 30.369 41.256 56.715 69.626 77.327z" fill="#de1a1a"/>
<g filter="url(#n)">
<path d="m294.45 748.39 25.943-23.359 4.938 5.485-20.736 18.671 0.137 0.152 9.073 2.588-4.864 4.38-9.849-2.761z" fill="#fff"/>
</g>
<path d="m728.31 146.68c51.258 22.822 97.147 56.162 134.69 97.859l-111.58 100.47c-23.465-26.06-52.146-46.898-84.182-61.162z" fill="#23b316"/>
<path d="m755 253.54c-2.365-1.733-3.982-3.799-4.85-6.2-0.86-2.394-0.951-5.024-0.274-7.889 0.687-2.858 2.156-5.829 4.41-8.911 2.237-3.08 4.6-5.374 7.086-6.882 2.496-1.502 5.005-2.2 7.527-2.095 2.538 0.102 4.989 1.011 7.351 2.728 2.363 1.717 3.981 3.763 4.853 6.138 0.882 2.383 0.994 4.993 0.337 7.83-0.65 2.829-2.099 5.779-4.345 8.853-2.251 3.098-4.635 5.411-7.15 6.941-2.507 1.536-5.031 2.265-7.574 2.188-2.542-0.078-4.999-0.978-7.371-2.701zm3.597-4.951c1.618 1.176 3.501 1.301 5.648 0.375 2.148-0.926 4.399-3.02 6.754-6.281 1.557-2.142 2.632-4.086 3.226-5.831 0.603-1.739 0.765-3.258 0.486-4.556-0.269-1.291-0.942-2.328-2.017-3.109-1.609-1.169-3.481-1.3-5.615-0.393-2.134 0.908-4.371 2.963-6.712 6.164-1.576 2.17-2.676 4.138-3.299 5.905-0.607 1.764-0.775 3.299-0.503 4.607 0.279 1.298 0.956 2.338 2.032 3.119z" fill="#000" fill-opacity=".06"/>
<path d="m755.25 250.37c-2.366-1.733-3.982-3.799-4.851-6.2-0.859-2.394-0.95-5.024-0.273-7.889 0.686-2.858 2.156-5.829 4.41-8.911 2.237-3.08 4.599-5.374 7.086-6.882 2.495-1.502 5.004-2.2 7.527-2.095 2.538 0.102 4.988 1.011 7.351 2.728s3.98 3.763 4.853 6.138c0.882 2.383 0.994 4.993 0.337 7.83-0.65 2.829-2.099 5.779-4.346 8.853-2.251 3.098-4.634 5.411-7.15 6.941-2.506 1.536-5.031 2.265-7.573 2.188-2.542-0.078-4.999-0.978-7.371-2.701zm3.596-4.951c1.619 1.176 3.501 1.301 5.649 0.375 2.147-0.926 4.399-3.02 6.754-6.281 1.556-2.142 2.632-4.086 3.226-5.831 0.603-1.739 0.765-3.258 0.486-4.556-0.269-1.291-0.942-2.328-2.018-3.109-1.609-1.169-3.48-1.3-5.614-0.393-2.134 0.908-4.372 2.963-6.712 6.164-1.576 2.17-2.676 4.138-3.299 5.905-0.608 1.764-0.775 3.299-0.503 4.607 0.279 1.298 0.956 2.338 2.031 3.119z" fill="#fff" fill-opacity=".97"/>
<path d="m863 244.54c37.544 41.697 65.905 90.82 83.244 144.18l-142.8 46.398c-10.836-33.352-28.562-64.053-52.027-90.114z" fill="#2e332d"/>
<g filter="url(#i)">
<path d="m873.59 327.62-30.232 17.454-3.691-6.392 24.165-13.951-0.102-0.178-8.337-4.417 5.668-3.273 9.06 4.749zm11.742 20.338-30.232 17.454-3.691-6.392 24.166-13.951-0.103-0.177-8.337-4.418 5.669-3.273 9.059 4.749z" fill="#fff"/>
</g>
<path d="m963.65 554.31c-5.865 55.802-23.393 109.75-51.447 158.34l-130.03-75.072c17.534-30.37 28.489-64.086 32.154-98.962z" fill="#2e332d"/>
<g filter="url(#h)">
<path d="m909.92 614.91-33.2-10.787 2.28-7.019 26.538 8.622 0.063-0.194-2.295-9.152 6.225 2.023 2.533 9.91zm-35.764-2.896 5.058 1.643 7.102 15.374c0.646 1.321 1.248 2.448 1.805 3.382 0.553 0.944 1.145 1.716 1.775 2.315 0.64 0.602 1.398 1.046 2.274 1.33 0.972 0.316 1.882 0.367 2.728 0.152 0.858-0.211 1.6-0.639 2.228-1.283 0.638-0.641 1.115-1.448 1.431-2.421 0.33-1.016 0.413-1.969 0.248-2.859s-0.564-1.665-1.198-2.325-1.48-1.162-2.54-1.506l2.165-6.663c2.173 0.706 3.899 1.811 5.179 3.314s2.069 3.283 2.369 5.34c0.299 2.057 0.073 4.242-0.678 6.554-0.773 2.378-1.867 4.311-3.282 5.798-1.408 1.503-3.012 2.505-4.812 3.007-1.8 0.503-3.657 0.443-5.57-0.179-1.254-0.407-2.41-1.058-3.47-1.952-1.063-0.883-2.137-2.193-3.221-3.932-1.073-1.734-2.277-4.079-3.611-7.034l-3.175-6.39-0.227-0.074-4.53 13.942-5.739-1.865z" fill="#fff"/>
</g>
<path d="m800.8 836.37c-45.394 32.98-97.212 56.051-152.1 67.717l-31.217-146.86c34.302-7.291 66.688-21.71 95.059-42.323z" fill="#2e332d"/>
<g filter="url(#g)">
<path d="m720.73 836.59-14.199-31.891 6.743-3.002 11.349 25.491 0.187-0.083 5.265-7.83 2.662 5.98-5.669 8.513zm-33.76-23.704c2.325-1.035 4.574-1.558 6.746-1.567 2.167 5e-3 4.089 0.481 5.766 1.426 1.672 0.96 2.937 2.362 3.795 4.206l-6.789 3.023c-0.388-0.76-0.948-1.332-1.678-1.716-0.737-0.369-1.571-0.538-2.503-0.509-0.933 0.03-1.892 0.264-2.878 0.703-1.028 0.458-1.855 1.044-2.482 1.758-0.628 0.715-1.021 1.494-1.181 2.336s-0.052 1.684 0.322 2.525c0.379 0.851 0.953 1.497 1.721 1.939 0.763 0.456 1.669 0.675 2.718 0.656 1.039-0.015 2.16-0.29 3.364-0.826l2.974-1.325 2.205 4.952-2.974 1.324c-1.018 0.453-1.837 1.03-2.458 1.729-0.632 0.705-1.028 1.465-1.186 2.282-0.154 0.828-0.044 1.662 0.33 2.503 0.356 0.799 0.86 1.414 1.512 1.845 0.647 0.446 1.389 0.688 2.227 0.726 0.827 0.042 1.692-0.138 2.595-0.54 0.914-0.407 1.676-0.945 2.285-1.615 0.615-0.659 1.017-1.391 1.205-2.197 0.189-0.805 0.119-1.62-0.211-2.443l6.463-2.878c0.787 1.852 0.983 3.705 0.59 5.559s-1.276 3.56-2.648 5.116c-1.378 1.571-3.157 2.842-5.337 3.813-2.201 0.98-4.304 1.437-6.311 1.373-2.006-0.065-3.769-0.573-5.288-1.527-1.525-0.938-2.657-2.25-3.395-3.937-0.805-1.78-0.913-3.517-0.324-5.21 0.58-1.689 1.691-3.091 3.333-4.208l-0.111-0.249c-2.48 0.743-4.629 0.723-6.445-0.06-1.823-0.769-3.17-2.146-4.042-4.134-0.82-1.812-1.014-3.66-0.584-5.543 0.42-1.879 1.374-3.634 2.861-5.267 1.487-1.632 3.425-2.98 5.813-4.043z" fill="#fff"/>
</g>
<path d="m482.21 904.09c-54.883-11.666-106.7-34.737-152.1-67.716l88.253-121.47c28.371 20.612 60.757 35.031 95.059 42.322z" fill="#2e332d"/>
<g filter="url(#f)">
<path d="m429.39 845.14 14.199-31.891 6.743 3.002-11.35 25.491 0.187 0.083 9.342-1.326-2.662 5.979-10.121 1.484zm4.606-29.445-2.364 5.31-22.652 15.048-4.578-2.039 3.272-7.35 2.709 1.207 14.307-9.546 0.111-0.249-18.919-8.424 2.405-5.403zm-12.811-12.421-3.217 7.225-1.171 2.296-9.935 22.315-6.322-2.815 14.199-31.891z" fill="#fff"/>
</g>
<path d="m218.71 712.65c-28.055-48.592-45.583-102.54-51.448-158.34l149.32-15.695c3.666 34.876 14.621 68.592 32.155 98.962z" fill="#2e332d"/>
<g filter="url(#e)">
<path d="m257.48 612.69c0.811 2.497 1.127 4.849 0.949 7.058-0.193 2.201-0.818 4.083-1.876 5.646-1.057 1.562-2.483 2.635-4.277 3.218-1.384 0.449-2.755 0.548-4.115 0.297-1.375-0.258-2.623-0.809-3.745-1.651-1.133-0.839-2.027-1.898-2.682-3.179l-0.227 0.074c0.219 1.888-0.173 3.605-1.176 5.149-1.015 1.549-2.43 2.618-4.245 3.208-1.719 0.558-3.411 0.553-5.078-0.017-1.677-0.566-3.184-1.6-4.52-3.102-1.351-1.508-2.39-3.381-3.117-5.618-0.726-2.238-0.985-4.358-0.776-6.362 0.206-2.014 0.821-3.743 1.845-5.187 1.014-1.441 2.372-2.444 4.077-3.01 1.83-0.582 3.606-0.538 5.33 0.133 1.723 0.67 3.046 1.818 3.968 3.442l0.227-0.074c-0.216-1.4-0.11-2.766 0.317-4.1 0.412-1.341 1.099-2.519 2.059-3.536 0.945-1.024 2.108-1.767 3.488-2.227 1.797-0.572 3.583-0.537 5.357 0.105 1.774 0.643 3.388 1.803 4.841 3.482 1.439 1.671 2.565 3.755 3.376 6.251zm-5.155 1.675c-0.362-1.113-0.878-2.021-1.548-2.723-0.681-0.699-1.454-1.165-2.318-1.398-0.879-0.24-1.788-0.207-2.729 0.098-0.962 0.313-1.731 0.832-2.308 1.557-0.588 0.728-0.957 1.577-1.108 2.546-0.162 0.973-0.067 2 0.284 3.081 0.348 1.069 0.874 1.956 1.581 2.658 0.695 0.706 1.495 1.181 2.398 1.425 0.89 0.237 1.815 0.199 2.777-0.113 0.94-0.306 1.697-0.809 2.27-1.509 0.563-0.696 0.912-1.533 1.049-2.509 0.126-0.973 0.01-2.011-0.348-3.113zm-14.834 4.82c-0.302-0.93-0.759-1.695-1.373-2.296-0.613-0.601-1.322-0.999-2.126-1.191-0.803-0.193-1.642-0.148-2.518 0.137-0.864 0.281-1.554 0.732-2.069 1.353-0.526 0.625-0.857 1.354-0.993 2.187-0.146 0.836-0.065 1.729 0.244 2.68 0.306 0.941 0.765 1.711 1.379 2.313 0.603 0.604 1.3 1.005 2.093 1.201 0.778 0.19 1.6 0.144 2.464-0.137 0.876-0.285 1.582-0.741 2.118-1.37 0.537-0.628 0.877-1.366 1.02-2.213s0.063-1.735-0.239-2.664z" fill="#fff"/>
</g>
<path d="m184.67 388.73c17.338-53.363 45.699-102.49 83.243-144.18l111.58 100.47c-23.465 26.06-41.191 56.762-52.027 90.114z" fill="#2e332d"/>
<g filter="url(#d)">
<path d="m253.63 333.06c0.898-1.555 2.022-2.9 3.373-4.036 1.357-1.145 2.933-1.954 4.728-2.427 1.801-0.483 3.836-0.508 6.106-0.077 2.266 0.417 4.77 1.409 7.511 2.979 2.569 1.483 4.694 3.097 6.377 4.843 1.678 1.729 2.911 3.537 3.699 5.422s1.113 3.799 0.976 5.741c-0.146 1.936-0.76 3.838-1.839 5.708-1.165 2.018-2.582 3.575-4.252 4.671-1.679 1.09-3.465 1.719-5.359 1.885-1.898 0.151-3.75-0.164-5.556-0.944l3.639-6.304c1.244 0.391 2.399 0.368 3.463-0.067 1.055-0.44 1.918-1.241 2.588-2.403 1.137-1.968 1.144-3.958 0.023-5.97-1.132-2.018-3.19-3.895-6.176-5.633l-0.12 0.207c0.625 0.964 1.035 2.015 1.231 3.152 0.187 1.131 0.166 2.293-0.064 3.486-0.223 1.183-0.656 2.33-1.298 3.442-1.029 1.781-2.365 3.129-4.008 4.044-1.643 0.914-3.431 1.352-5.363 1.312-1.933-0.039-3.838-0.602-5.718-1.687-2.033-1.161-3.569-2.671-4.608-4.53-1.039-1.86-1.518-3.894-1.436-6.104 0.078-2.225 0.772-4.462 2.083-6.71zm5.044 2.853c-0.573 0.994-0.849 2.016-0.825 3.067 0.029 1.04 0.312 2.017 0.847 2.93 0.542 0.903 1.307 1.633 2.297 2.192 0.994 0.574 2.015 0.874 3.062 0.901 1.043 0.012 2.019-0.225 2.929-0.71 0.906-0.5 1.643-1.243 2.211-2.227 0.426-0.738 0.683-1.501 0.771-2.29s0.025-1.554-0.19-2.295c-0.22-0.757-0.572-1.452-1.059-2.087-0.486-0.635-1.088-1.16-1.807-1.575-0.96-0.541-1.967-0.821-3.019-0.838-1.053-0.017-2.045 0.223-2.976 0.722-0.931 0.5-1.678 1.236-2.241 2.21z" fill="#fff"/>
</g>
<path d="m402.6 146.68c51.258-22.821 106.74-34.615 162.85-34.615v150.14c-35.068 0-69.745 7.371-101.78 21.634z" fill="#2e332d"/>
<g filter="url(#c)">
<path d="m479.99 163.33 7.258 34.146-7.219 1.535-5.801-27.294-0.2 0.043-6.778 6.564-1.361-6.403 7.316-7.148zm28.922 30.326c-2.87 0.598-5.488 0.417-7.853-0.544-2.354-0.963-4.369-2.655-6.045-5.076-1.665-2.422-2.889-5.502-3.672-9.239-0.791-3.724-0.916-7.014-0.373-9.871 0.554-2.86 1.714-5.192 3.48-6.996 1.774-1.818 4.09-3.03 6.946-3.637 2.857-0.608 5.46-0.441 7.809 0.501 2.361 0.938 4.375 2.601 6.044 4.988 1.667 2.376 2.891 5.427 3.671 9.153 0.796 3.746 0.921 7.065 0.374 9.958-0.536 2.891-1.683 5.255-3.441 7.092-1.759 1.838-4.072 3.061-6.94 3.671zm-1.272-5.986c1.956-0.415 3.309-1.731 4.057-3.947 0.749-2.215 0.7-5.289-0.147-9.222-0.551-2.589-1.276-4.689-2.176-6.299-0.888-1.611-1.908-2.748-3.06-3.409-1.14-0.664-2.36-0.858-3.661-0.582-1.945 0.414-3.294 1.717-4.048 3.911-0.754 2.193-0.724 5.23 0.09 9.112 0.557 2.623 1.284 4.757 2.18 6.402 0.904 1.632 1.933 2.784 3.087 3.457 1.151 0.661 2.377 0.854 3.678 0.577z" fill="#fff"/>
</g>
<path d="m565.46 112.07c56.109 0 111.59 11.793 162.85 34.615l-61.068 137.16c-32.037-14.264-66.714-21.634-101.78-21.634z" fill="#de1a1a"/>
<g filter="url(#b)">
<path d="m619.78 186.12 1.209-5.685 19.029-19.429 4.902 1.042-1.673 7.87-2.901-0.617-12.01 12.312-0.057 0.267 20.258 4.306-1.23 5.785zm15.114 9.486 1.644-7.736 0.669-2.489 5.078-23.893 6.769 1.439-7.258 34.146z" fill="#fff"/>
</g>
<path d="m946.24 388.73c17.338 53.363 23.268 109.77 17.403 165.58l-149.32-15.694c3.665-34.876-0.041-70.133-10.877-103.48z" fill="#de1a1a"/>
<g filter="url(#a)">
<path d="m887.52 478.17c-0.252-2.396-0.036-4.578 0.649-6.547 0.685-1.957 1.745-3.565 3.178-4.824s3.147-2.017 5.143-2.272l0.748 7.12c-1.337 0.22-2.368 0.9-3.094 2.039-0.725 1.139-1.012 2.432-0.86 3.878 0.121 1.153 0.482 2.143 1.083 2.971 0.614 0.839 1.405 1.458 2.372 1.859 0.981 0.411 2.07 0.554 3.268 0.428 1.22-0.128 2.266-0.501 3.138-1.118 0.874-0.606 1.523-1.389 1.948-2.347 0.424-0.959 0.581-2.021 0.47-3.186-0.107-1.017-0.42-1.984-0.939-2.901-0.518-0.905-1.166-1.586-1.945-2.041l0.483-6.649 18.482-0.28 2.23 21.224-6.001 0.631-1.594-15.173-8.791 0.016 0.021 0.203c0.923 0.52 1.732 1.367 2.426 2.539 0.695 1.173 1.122 2.522 1.283 4.047 0.22 2.091-0.076 4.008-0.887 5.75s-2.026 3.178-3.644 4.307c-1.606 1.129-3.523 1.805-5.751 2.027-2.338 0.258-4.475-0.066-6.409-0.971-1.923-0.895-3.506-2.266-4.752-4.111-1.232-1.836-1.984-4.042-2.255-6.619z" fill="#fff"/>
</g>
<path d="m912.2 712.65c-28.054 48.592-66.009 90.745-111.4 123.72l-88.253-121.47c28.37-20.613 52.092-46.958 69.626-77.328z" fill="#de1a1a"/>
<g filter="url(#m)">
<path d="m806 729.33c1.209-1.326 2.593-2.413 4.15-3.259 1.549-0.837 3.259-1.301 5.129-1.391s3.878 0.312 6.025 1.205c2.139 0.902 4.396 2.421 6.769 4.557 2.171 1.971 3.893 3.972 5.166 6.006 1.274 2.049 2.097 4.074 2.467 6.074 0.363 2.009 0.275 3.941-0.264 5.795-0.53 1.863-1.517 3.596-2.962 5.201-1.558 1.731-3.273 2.955-5.142 3.673-1.861 0.725-3.727 0.972-5.598 0.74-1.878-0.224-3.607-0.893-5.186-2.01l4.87-5.409c1.094 0.603 2.202 0.798 3.326 0.587 1.123-0.212 2.134-0.816 3.031-1.813 1.521-1.689 1.942-3.634 1.263-5.835-0.686-2.193-2.284-4.435-4.794-6.725l-0.16 0.177c0.419 1.081 0.602 2.193 0.549 3.339-0.051 1.161-0.314 2.293-0.787 3.396-0.473 1.119-1.135 2.152-1.986 3.098-1.384 1.537-2.979 2.578-4.785 3.123-1.798 0.553-3.637 0.609-5.519 0.169-1.882-0.441-3.633-1.391-5.255-2.851-1.756-1.582-2.95-3.398-3.58-5.449-0.638-2.042-0.688-4.144-0.15-6.304 0.54-2.145 1.68-4.176 3.423-6.094zm4.329 3.853c-0.76 0.844-1.238 1.783-1.433 2.815-0.196 1.032-0.118 2.05 0.232 3.053 0.35 1.004 0.956 1.893 1.818 2.669 0.861 0.775 1.805 1.281 2.831 1.517 1.019 0.244 2.027 0.22 3.026-0.074 0.998-0.294 1.877-0.863 2.638-1.707 0.57-0.634 0.98-1.327 1.23-2.08 0.243-0.745 0.336-1.511 0.278-2.296-0.064-0.777-0.273-1.531-0.625-2.261-0.344-0.722-0.828-1.364-1.453-1.927-0.836-0.753-1.771-1.251-2.806-1.494-1.042-0.235-2.067-0.21-3.073 0.076-1.015 0.295-1.902 0.864-2.663 1.709z" fill="#fff"/>
</g>
<path d="m648.7 904.09c-54.883 11.666-111.6 11.666-166.49 1e-3l31.216-146.86c34.302 7.291 69.753 7.291 104.06 0z" fill="#de1a1a"/>
<g filter="url(#l)">
<path d="m576.26 836.81-14.471 28.636v0.239h16.858v6.034h-24.495v-6.119l14.489-28.79z" fill="#fff"/>
</g>
<path d="m167.26 554.31c-5.865-55.802 0.064-112.21 17.402-165.58l142.8 46.397c-10.837 33.352-14.543 68.609-10.877 103.48z" fill="#de1a1a"/>
<g filter="url(#k)">
<path d="m241.5 491.66-5.289-0.556-10.144-13.561c-0.906-1.158-1.729-2.135-2.468-2.933-0.738-0.809-1.477-1.44-2.218-1.895-0.751-0.456-1.585-0.733-2.5-0.829-1.018-0.107-1.918 0.033-2.701 0.419-0.795 0.385-1.432 0.958-1.912 1.719-0.491 0.759-0.79 1.648-0.897 2.665-0.112 1.062 6e-3 2.011 0.352 2.848 0.346 0.836 0.898 1.511 1.655 2.025 0.758 0.514 1.69 0.829 2.798 0.945l-0.733 6.967c-2.271-0.238-4.189-0.96-5.754-2.164-1.564-1.204-2.707-2.781-3.428-4.731-0.72-1.95-0.953-4.134-0.699-6.552 0.261-2.486 0.929-4.604 2.004-6.354 1.065-1.762 2.426-3.076 4.083-3.941 1.656-0.866 3.484-1.194 5.485-0.983 1.311 0.137 2.577 0.533 3.8 1.187 1.223 0.643 2.546 1.702 3.968 3.177 1.41 1.474 3.075 3.517 4.994 6.129l4.435 5.591 0.237 0.025 1.532-14.579 6.001 0.631z" fill="#fff"/>
</g>
<path d="m267.91 244.54c37.544-41.698 83.433-75.038 134.69-97.86l61.07 137.16c-32.036 14.263-60.717 35.101-84.182 61.162z" fill="#de1a1a"/>
<g filter="url(#j)">
<path d="m374.86 250.6c-2.059 1.496-4.151 2.475-6.274 2.936-2.12 0.445-4.099 0.379-5.936-0.196-1.834-0.592-3.363-1.7-4.586-3.326l6.012-4.368c0.538 0.663 1.204 1.106 1.998 1.329 0.797 0.208 1.649 0.2 2.554-0.022 0.906-0.223 1.796-0.652 2.669-1.286 0.91-0.661 1.598-1.407 2.063-2.236 0.464-0.83 0.688-1.673 0.669-2.53s-0.299-1.658-0.84-2.403c-0.548-0.754-1.243-1.267-2.087-1.539-0.841-0.287-1.773-0.313-2.795-0.076-1.012 0.23-2.052 0.732-3.118 1.507l-2.634 1.914-3.186-4.385 2.633-1.914c0.901-0.655 1.583-1.389 2.046-2.202 0.471-0.82 0.7-1.647 0.685-2.479-0.021-0.841-0.303-1.634-0.844-2.379-0.514-0.708-1.135-1.205-1.862-1.491-0.725-0.302-1.502-0.384-2.329-0.246-0.818 0.13-1.627 0.486-2.426 1.067-0.809 0.588-1.443 1.273-1.9 2.055-0.464 0.772-0.705 1.572-0.722 2.399s0.221 1.61 0.715 2.347l-5.723 4.158c-1.155-1.648-1.733-3.419-1.733-5.315-1e-3 -1.895 0.508-3.747 1.526-5.555 1.021-1.823 2.497-3.436 4.428-4.839 1.949-1.416 3.911-2.301 5.887-2.655s3.806-0.223 5.49 0.394c1.687 0.601 3.067 1.649 4.139 3.145 1.158 1.574 1.625 3.251 1.4 5.03-0.215 1.772-1.01 3.374-2.384 4.808l0.16 0.221c2.271-1.243 4.377-1.67 6.317-1.282 1.942 0.373 3.546 1.441 4.813 3.203 1.178 1.603 1.753 3.369 1.723 5.301-0.02 1.925-0.588 3.84-1.703 5.746-1.116 1.906-2.731 3.628-4.845 5.164z" fill="#fff"/>
</g>
</g>
<defs>
<filter id="n" x="290.45" y="725.03" width="44.367" height="42.937" color-interpolation-filters="sRGB" filterUnits="userSpaceOnUse">
<feFlood flood-opacity="0" result="BackgroundImageFix"/>
<feColorMatrix in="SourceAlpha" result="hardAlpha" values="0 0 0 0 0 0 0 0 0 0 0 0 0 0 0 0 0 0 127 0"/>
<feOffset dy="4"/>
<feGaussianBlur stdDeviation="2"/>
<feComposite in2="hardAlpha" operator="out"/>
<feColorMatrix values="0 0 0 0 0 0 0 0 0 0 0 0 0 0 0 0 0 0 0.25 0"/>
<feBlend in2="BackgroundImageFix" result="effect1_dropShadow_6_189"/>
<feBlend in="SourceGraphic" in2="effect1_dropShadow_6_189" result="shape"/>
</filter>
<filter id="i" x="831.56" y="314.13" width="57.764" height="59.285" color-interpolation-filters="sRGB" filterUnits="userSpaceOnUse">
<feFlood flood-opacity="0" result="BackgroundImageFix"/>
<feColorMatrix in="SourceAlpha" result="hardAlpha" values="0 0 0 0 0 0 0 0 0 0 0 0 0 0 0 0 0 0 127 0"/>
<feOffset dy="4"/>
<feGaussianBlur stdDeviation="2"/>
<feComposite in2="hardAlpha" operator="out"/>
<feColorMatrix values="0 0 0 0 0 0 0 0 0 0 0 0 0 0 0 0 0 0 0.25 0"/>
<feBlend in2="BackgroundImageFix" result="effect1_dropShadow_6_189"/>
<feBlend in="SourceGraphic" in2="effect1_dropShadow_6_189" result="shape"/>
</filter>
<filter id="h" x="862.47" y="589.3" width="56.723" height="65.311" color-interpolation-filters="sRGB" filterUnits="userSpaceOnUse">
<feFlood flood-opacity="0" result="BackgroundImageFix"/>
<feColorMatrix in="SourceAlpha" result="hardAlpha" values="0 0 0 0 0 0 0 0 0 0 0 0 0 0 0 0 0 0 127 0"/>
<feOffset dy="4"/>
<feGaussianBlur stdDeviation="2"/>
<feComposite in2="hardAlpha" operator="out"/>
<feColorMatrix values="0 0 0 0 0 0 0 0 0 0 0 0 0 0 0 0 0 0 0.25 0"/>
<feBlend in2="BackgroundImageFix" result="effect1_dropShadow_6_189"/>
<feBlend in="SourceGraphic" in2="effect1_dropShadow_6_189" result="shape"/>
</filter>
<filter id="g" x="670.68" y="797.92" width="68.473" height="61.193" color-interpolation-filters="sRGB" filterUnits="userSpaceOnUse">
<feFlood flood-opacity="0" result="BackgroundImageFix"/>
<feColorMatrix in="SourceAlpha" result="hardAlpha" values="0 0 0 0 0 0 0 0 0 0 0 0 0 0 0 0 0 0 127 0"/>
<feOffset dy="4"/>
<feGaussianBlur stdDeviation="2"/>
<feComposite in2="hardAlpha" operator="out"/>
<feColorMatrix values="0 0 0 0 0 0 0 0 0 0 0 0 0 0 0 0 0 0 0.25 0"/>
<feBlend in2="BackgroundImageFix" result="effect1_dropShadow_6_189"/>
<feBlend in="SourceGraphic" in2="effect1_dropShadow_6_189" result="shape"/>
</filter>
<filter id="f" x="392.58" y="798.64" width="69.237" height="60.834" color-interpolation-filters="sRGB" filterUnits="userSpaceOnUse">
<feFlood flood-opacity="0" result="BackgroundImageFix"/>
<feColorMatrix in="SourceAlpha" result="hardAlpha" values="0 0 0 0 0 0 0 0 0 0 0 0 0 0 0 0 0 0 127 0"/>
<feOffset dy="4"/>
<feGaussianBlur stdDeviation="2"/>
<feComposite in2="hardAlpha" operator="out"/>
<feColorMatrix values="0 0 0 0 0 0 0 0 0 0 0 0 0 0 0 0 0 0 0.25 0"/>
<feBlend in2="BackgroundImageFix" result="effect1_dropShadow_6_189"/>
<feBlend in="SourceGraphic" in2="effect1_dropShadow_6_189" result="shape"/>
</filter>
<filter id="e" x="215.18" y="599.81" width="50.478" height="44.842" color-interpolation-filters="sRGB" filterUnits="userSpaceOnUse">
<feFlood flood-opacity="0" result="BackgroundImageFix"/>
<feColorMatrix in="SourceAlpha" result="hardAlpha" values="0 0 0 0 0 0 0 0 0 0 0 0 0 0 0 0 0 0 127 0"/>
<feOffset dy="4"/>
<feGaussianBlur stdDeviation="2"/>
<feComposite in2="hardAlpha" operator="out"/>
<feColorMatrix values="0 0 0 0 0 0 0 0 0 0 0 0 0 0 0 0 0 0 0.25 0"/>
<feBlend in2="BackgroundImageFix" result="effect1_dropShadow_6_189"/>
<feBlend in="SourceGraphic" in2="effect1_dropShadow_6_189" result="shape"/>
</filter>
<filter id="d" x="243.09" y="320.98" width="52.574" height="49.323" color-interpolation-filters="sRGB" filterUnits="userSpaceOnUse">
<feFlood flood-opacity="0" result="BackgroundImageFix"/>
<feColorMatrix in="SourceAlpha" result="hardAlpha" values="0 0 0 0 0 0 0 0 0 0 0 0 0 0 0 0 0 0 127 0"/>
<feOffset dy="4"/>
<feGaussianBlur stdDeviation="2"/>
<feComposite in2="hardAlpha" operator="out"/>
<feColorMatrix values="0 0 0 0 0 0 0 0 0 0 0 0 0 0 0 0 0 0 0.25 0"/>
<feBlend in2="BackgroundImageFix" result="effect1_dropShadow_6_189"/>
<feBlend in="SourceGraphic" in2="effect1_dropShadow_6_189" result="shape"/>
</filter>
<filter id="c" x="460.65" y="155.36" width="66.065" height="54.108" color-interpolation-filters="sRGB" filterUnits="userSpaceOnUse">
<feFlood flood-opacity="0" result="BackgroundImageFix"/>
<feColorMatrix in="SourceAlpha" result="hardAlpha" values="0 0 0 0 0 0 0 0 0 0 0 0 0 0 0 0 0 0 127 0"/>
<feOffset dy="4"/>
<feGaussianBlur stdDeviation="2"/>
<feComposite in2="hardAlpha" operator="out"/>
<feColorMatrix values="0 0 0 0 0 0 0 0 0 0 0 0 0 0 0 0 0 0 0.25 0"/>
<feBlend in2="BackgroundImageFix" result="effect1_dropShadow_6_189"/>
<feBlend in="SourceGraphic" in2="effect1_dropShadow_6_189" result="shape"/>
</filter>
<filter id="b" x="614.5" y="157.98" width="42.785" height="47.997" color-interpolation-filters="sRGB" filterUnits="userSpaceOnUse">
<feFlood flood-opacity="0" result="BackgroundImageFix"/>
<feColorMatrix in="SourceAlpha" result="hardAlpha" values="0 0 0 0 0 0 0 0 0 0 0 0 0 0 0 0 0 0 127 0"/>
<feOffset dy="4"/>
<feGaussianBlur stdDeviation="2"/>
<feComposite in2="hardAlpha" operator="out"/>
<feColorMatrix values="0 0 0 0 0 0 0 0 0 0 0 0 0 0 0 0 0 0 0.25 0"/>
<feBlend in2="BackgroundImageFix" result="effect1_dropShadow_6_189"/>
<feBlend in="SourceGraphic" in2="effect1_dropShadow_6_189" result="shape"/>
</filter>
<filter id="a" x="882.2" y="461.91" width="45.878" height="37.246" color-interpolation-filters="sRGB" filterUnits="userSpaceOnUse">
<feFlood flood-opacity="0" result="BackgroundImageFix"/>
<feColorMatrix in="SourceAlpha" result="hardAlpha" values="0 0 0 0 0 0 0 0 0 0 0 0 0 0 0 0 0 0 127 0"/>
<feOffset dy="4"/>
<feGaussianBlur stdDeviation="2"/>
<feComposite in2="hardAlpha" operator="out"/>
<feColorMatrix values="0 0 0 0 0 0 0 0 0 0 0 0 0 0 0 0 0 0 0.25 0"/>
<feBlend in2="BackgroundImageFix" result="effect1_dropShadow_6_189"/>
<feBlend in="SourceGraphic" in2="effect1_dropShadow_6_189" result="shape"/>
</filter>
<filter id="m" x="793.25" y="718.96" width="52.731" height="52.074" color-interpolation-filters="sRGB" filterUnits="userSpaceOnUse">
<feFlood flood-opacity="0" result="BackgroundImageFix"/>
<feColorMatrix in="SourceAlpha" result="hardAlpha" values="0 0 0 0 0 0 0 0 0 0 0 0 0 0 0 0 0 0 127 0"/>
<feOffset dy="4"/>
<feGaussianBlur stdDeviation="2"/>
<feComposite in2="hardAlpha" operator="out"/>
<feColorMatrix values="0 0 0 0 0 0 0 0 0 0 0 0 0 0 0 0 0 0 0.25 0"/>
<feBlend in2="BackgroundImageFix" result="effect1_dropShadow_6_189"/>
<feBlend in="SourceGraphic" in2="effect1_dropShadow_6_189" result="shape"/>
</filter>
<filter id="l" x="550.15" y="836.81" width="32.494" height="42.909" color-interpolation-filters="sRGB" filterUnits="userSpaceOnUse">
<feFlood flood-opacity="0" result="BackgroundImageFix"/>
<feColorMatrix in="SourceAlpha" result="hardAlpha" values="0 0 0 0 0 0 0 0 0 0 0 0 0 0 0 0 0 0 127 0"/>
<feOffset dy="4"/>
<feGaussianBlur stdDeviation="2"/>
<feComposite in2="hardAlpha" operator="out"/>
<feColorMatrix values="0 0 0 0 0 0 0 0 0 0 0 0 0 0 0 0 0 0 0.25 0"/>
<feBlend in2="BackgroundImageFix" result="effect1_dropShadow_6_189"/>
<feBlend in="SourceGraphic" in2="effect1_dropShadow_6_189" result="shape"/>
</filter>
<filter id="k" x="202.27" y="463.22" width="45.829" height="36.788" color-interpolation-filters="sRGB" filterUnits="userSpaceOnUse">
<feFlood flood-opacity="0" result="BackgroundImageFix"/>
<feColorMatrix in="SourceAlpha" result="hardAlpha" values="0 0 0 0 0 0 0 0 0 0 0 0 0 0 0 0 0 0 127 0"/>
<feOffset dy="4"/>
<feGaussianBlur stdDeviation="2"/>
<feComposite in2="hardAlpha" operator="out"/>
<feColorMatrix values="0 0 0 0 0 0 0 0 0 0 0 0 0 0 0 0 0 0 0.25 0"/>
<feBlend in2="BackgroundImageFix" result="effect1_dropShadow_6_189"/>
<feBlend in="SourceGraphic" in2="effect1_dropShadow_6_189" result="shape"/>
</filter>
<filter id="j" x="339.06" y="213.68" width="50.675" height="52.704" color-interpolation-filters="sRGB" filterUnits="userSpaceOnUse">
<feFlood flood-opacity="0" result="BackgroundImageFix"/>
<feColorMatrix in="SourceAlpha" result="hardAlpha" values="0 0 0 0 0 0 0 0 0 0 0 0 0 0 0 0 0 0 127 0"/>
<feOffset dy="4"/>
<feGaussianBlur stdDeviation="2"/>
<feComposite in2="hardAlpha" operator="out"/>
<feColorMatrix values="0 0 0 0 0 0 0 0 0 0 0 0 0 0 0 0 0 0 0.25 0"/>
<feBlend in2="BackgroundImageFix" result="effect1_dropShadow_6_189"/>
<feBlend in="SourceGraphic" in2="effect1_dropShadow_6_189" result="shape"/>
</filter>
</defs>
</svg>
